# xmcd CD database file
#
# Track frame offsets:
#	150
#	12838
#	23756
#	40100
#	57508
#	72040
#	94507
#	116975
#	130253
#	146454
#	171201
#
# Disc length: 2412 seconds
#
# Revision: 0
# Processed by: cddbd v1.5.2PL0 Copyright (c) Steve Scherf et al.
# Submitted via: CDex 1.51
#
DISCID=90096a0b
DTITLE=SmokeStack - Solid Gold
DYEAR=2002
DGENRE=Blues
TTITLE0=My Back Scratcher
TTITLE1=Solid Gold
TTITLE2=Keep On Rollin'
TTITLE3=Hi-Grade
TTITLE4=Get On The Right Track
TTITLE5=Spanish Six
TTITLE6=Red Rider
TTITLE7=Small Time
TTITLE8=Gone Too Long
TTITLE9=Caravan
TTITLE10=King Of Everything
EXTD=YEAR: 2002
EXTT0=
EXTT1=
EXTT2=
EXTT3=
EXTT4=
EXTT5=
EXTT6=
EXTT7=
EXTT8=
EXTT9=
EXTT10=
PLAYORDER=
